<svg width="100" height="36" viewBox="0 0 100 36" fill="none" xmlns="http://www.w3.org/2000/svg">
<path d="M11.8101 34.9125C8.89015 34.7965 6.50115 33.9975 4.63315 32.5135C4.27665 32.23 3.42715 31.38 3.14215 31.0215C2.38465 30.069 1.86965 29.142 1.52615 28.1135C0.46915 24.9475 1.01315 20.793 3.08215 16.2335C4.85365 12.33 7.58715 8.45851 12.3562 3.09651C13.0587 2.30751 15.1507 0 15.1642 0C15.1692 0 15.0551 0.197504 14.9116 0.438004C13.6716 2.515 12.6107 4.9615 12.0326 7.0795C11.1041 10.478 11.2161 13.3945 12.3606 15.656C13.1501 17.214 14.5036 18.5635 16.0256 19.3095C18.6901 20.615 22.5912 20.723 27.3552 19.6255C27.6832 19.5495 43.9361 15.235 63.4731 10.0375C83.0101 4.83951 98.9976 0.590006 99.0001 0.593506C99.0056 0.598006 53.6102 20.023 30.0447 30.1005C26.3127 31.696 25.3146 32.099 23.5601 32.715C19.0751 34.29 15.0576 35.0415 11.8101 34.9125Z" fill="black"/>
</svg>
